<svg width="763" height="521" viewBox="0 0 763 521" fill="none" xmlns="http://www.w3.org/2000/svg">
<rect width="763" height="521" fill="#77A581"/>
<path d="M100.204 78.4C100.204 71.808 101.676 65.92 104.62 60.736C107.628 55.488 111.692 51.424 116.812 48.544C121.996 45.6 127.788 44.128 134.188 44.128C141.676 44.128 148.236 46.048 153.868 49.888C159.5 53.728 163.436 59.04 165.676 65.824H150.22C148.684 62.624 146.508 60.224 143.692 58.624C140.94 57.024 137.74 56.224 134.092 56.224C130.188 56.224 126.7 57.152 123.628 59.008C120.62 60.8 118.252 63.36 116.524 66.688C114.86 70.016 114.028 73.92 114.028 78.4C114.028 82.816 114.86 86.72 116.524 90.112C118.252 93.44 120.62 96.032 123.628 97.888C126.7 99.68 130.188 100.576 134.092 100.576C137.74 100.576 140.94 99.776 143.692 98.176C146.508 96.512 148.684 94.08 150.22 90.88H165.676C163.436 97.728 159.5 103.072 153.868 106.912C148.3 110.688 141.74 112.576 134.188 112.576C127.788 112.576 121.996 111.136 116.812 108.256C111.692 105.312 107.628 101.248 104.62 96.064C101.676 90.88 100.204 84.992 100.204 78.4ZM200.771 112.864C195.651 112.864 191.043 111.744 186.947 109.504C182.851 107.2 179.619 103.968 177.251 99.808C174.947 95.648 173.795 90.848 173.795 85.408C173.795 79.968 174.979 75.168 177.347 71.008C179.779 66.848 183.075 63.648 187.235 61.408C191.395 59.104 196.035 57.952 201.155 57.952C206.275 57.952 210.915 59.104 215.075 61.408C219.235 63.648 222.499 66.848 224.867 71.008C227.299 75.168 228.515 79.968 228.515 85.408C228.515 90.848 227.267 95.648 224.771 99.808C222.339 103.968 219.011 107.2 214.787 109.504C210.627 111.744 205.955 112.864 200.771 112.864ZM200.771 101.152C203.203 101.152 205.475 100.576 207.587 99.424C209.763 98.208 211.491 96.416 212.771 94.048C214.051 91.68 214.691 88.8 214.691 85.408C214.691 80.352 213.347 76.48 210.659 73.792C208.035 71.04 204.803 69.664 200.963 69.664C197.123 69.664 193.891 71.04 191.267 73.792C188.707 76.48 187.427 80.352 187.427 85.408C187.427 90.464 188.675 94.368 191.171 97.12C193.731 99.808 196.931 101.152 200.771 101.152ZM267.846 58.048C274.182 58.048 279.302 60.064 283.206 64.096C287.11 68.064 289.062 73.632 289.062 80.8V112H275.622V82.624C275.622 78.4 274.566 75.168 272.454 72.928C270.342 70.624 267.462 69.472 263.814 69.472C260.102 69.472 257.158 70.624 254.982 72.928C252.87 75.168 251.814 78.4 251.814 82.624V112H238.374V58.816H251.814V65.44C253.606 63.136 255.878 61.344 258.63 60.064C261.446 58.72 264.518 58.048 267.846 58.048ZM331.315 58.048C337.651 58.048 342.771 60.064 346.675 64.096C350.579 68.064 352.531 73.632 352.531 80.8V112H339.091V82.624C339.091 78.4 338.035 75.168 335.923 72.928C333.811 70.624 330.931 69.472 327.283 69.472C323.571 69.472 320.627 70.624 318.451 72.928C316.339 75.168 315.283 78.4 315.283 82.624V112H301.843V58.816H315.283V65.44C317.075 63.136 319.347 61.344 322.099 60.064C324.915 58.72 327.987 58.048 331.315 58.048ZM414.752 84.256C414.752 86.176 414.624 87.904 414.368 89.44H375.488C375.808 93.28 377.152 96.288 379.52 98.464C381.888 100.64 384.8 101.728 388.256 101.728C393.248 101.728 396.8 99.584 398.912 95.296H413.408C411.872 100.416 408.928 104.64 404.576 107.968C400.224 111.232 394.88 112.864 388.544 112.864C383.424 112.864 378.816 111.744 374.72 109.504C370.688 107.2 367.52 103.968 365.216 99.808C362.976 95.648 361.855 90.848 361.855 85.408C361.855 79.904 362.976 75.072 365.216 70.912C367.456 66.752 370.592 63.552 374.624 61.312C378.656 59.072 383.296 57.952 388.544 57.952C393.6 57.952 398.112 59.04 402.08 61.216C406.112 63.392 409.216 66.496 411.392 70.528C413.632 74.496 414.752 79.072 414.752 84.256ZM400.832 80.416C400.768 76.96 399.52 74.208 397.088 72.16C394.656 70.048 391.68 68.992 388.16 68.992C384.832 68.992 382.016 70.016 379.712 72.064C377.472 74.048 376.096 76.832 375.584 80.416H400.832ZM421.105 85.408C421.105 79.904 422.226 75.104 424.466 71.008C426.706 66.848 429.81 63.648 433.778 61.408C437.746 59.104 442.29 57.952 447.41 57.952C454.002 57.952 459.442 59.616 463.73 62.944C468.082 66.208 470.994 70.816 472.466 76.768H457.97C457.202 74.464 455.89 72.672 454.034 71.392C452.242 70.048 450.002 69.376 447.314 69.376C443.474 69.376 440.434 70.784 438.194 73.6C435.954 76.352 434.834 80.288 434.834 85.408C434.834 90.464 435.954 94.4 438.194 97.216C440.434 99.968 443.474 101.344 447.314 101.344C452.754 101.344 456.306 98.912 457.97 94.048H472.466C470.994 99.808 468.082 104.384 463.73 107.776C459.378 111.168 453.938 112.864 447.41 112.864C442.29 112.864 437.746 111.744 433.778 109.504C429.81 107.2 426.706 104 424.466 99.904C422.226 95.744 421.105 90.912 421.105 85.408ZM497.96 69.856V95.584C497.96 97.376 498.376 98.688 499.208 99.52C500.104 100.288 501.576 100.672 503.624 100.672H509.864V112H501.416C490.088 112 484.424 106.496 484.424 95.488V69.856H478.088V58.816H484.424V45.664H497.96V58.816H509.864V69.856H497.96ZM526.346 52.48C523.978 52.48 521.994 51.744 520.394 50.272C518.858 48.736 518.09 46.848 518.09 44.608C518.09 42.368 518.858 40.512 520.394 39.04C521.994 37.504 523.978 36.736 526.346 36.736C528.714 36.736 530.666 37.504 532.202 39.04C533.802 40.512 534.602 42.368 534.602 44.608C534.602 46.848 533.802 48.736 532.202 50.272C530.666 51.744 528.714 52.48 526.346 52.48ZM532.97 58.816V112H519.53V58.816H532.97ZM575.721 58.048C582.057 58.048 587.177 60.064 591.081 64.096C594.985 68.064 596.937 73.632 596.937 80.8V112H583.497V82.624C583.497 78.4 582.441 75.168 580.329 72.928C578.217 70.624 575.337 69.472 571.689 69.472C567.977 69.472 565.033 70.624 562.857 72.928C560.745 75.168 559.689 78.4 559.689 82.624V112H546.249V58.816H559.689V65.44C561.481 63.136 563.753 61.344 566.505 60.064C569.321 58.72 572.393 58.048 575.721 58.048ZM630.55 57.952C634.518 57.952 638.006 58.752 641.014 60.352C644.022 61.888 646.39 63.904 648.118 66.4V58.816H661.654V112.384C661.654 117.312 660.662 121.696 658.678 125.536C656.694 129.44 653.718 132.512 649.75 134.752C645.782 137.056 640.982 138.208 635.35 138.208C627.798 138.208 621.59 136.448 616.726 132.928C611.926 129.408 609.206 124.608 608.566 118.528H621.91C622.614 120.96 624.118 122.88 626.422 124.288C628.79 125.76 631.638 126.496 634.966 126.496C638.87 126.496 642.038 125.312 644.47 122.944C646.902 120.64 648.118 117.12 648.118 112.384V104.128C646.39 106.624 643.99 108.704 640.918 110.368C637.91 112.032 634.454 112.864 630.55 112.864C626.07 112.864 621.974 111.712 618.262 109.408C614.55 107.104 611.606 103.872 609.43 99.712C607.318 95.488 606.262 90.656 606.262 85.216C606.262 79.84 607.318 75.072 609.43 70.912C611.606 66.752 614.518 63.552 618.166 61.312C621.878 59.072 626.006 57.952 630.55 57.952ZM648.118 85.408C648.118 82.144 647.478 79.36 646.198 77.056C644.918 74.688 643.19 72.896 641.014 71.68C638.838 70.4 636.502 69.76 634.006 69.76C631.51 69.76 629.206 70.368 627.094 71.584C624.982 72.8 623.254 74.592 621.91 76.96C620.63 79.264 619.99 82.016 619.99 85.216C619.99 88.416 620.63 91.232 621.91 93.664C623.254 96.032 624.982 97.856 627.094 99.136C629.27 100.416 631.574 101.056 634.006 101.056C636.502 101.056 638.838 100.448 641.014 99.232C643.19 97.952 644.918 96.16 646.198 93.856C647.478 91.488 648.118 88.672 648.118 85.408ZM98.8399 229.312C98.8399 224 99.9279 219.296 102.104 215.2C104.344 211.04 107.352 207.808 111.128 205.504C114.904 203.2 119.064 202.048 123.608 202.048C127.384 202.048 130.712 202.784 133.592 204.256C136.536 205.664 138.904 207.488 140.696 209.728V202.816H154.232V281.344H140.696V248.704C138.904 251.008 136.504 252.928 133.496 254.464C130.488 256 127.096 256.768 123.32 256.768C118.84 256.768 114.712 255.616 110.936 253.312C107.224 250.944 104.28 247.68 102.104 243.52C99.9279 239.36 98.8399 234.624 98.8399 229.312ZM140.696 229.408C140.696 226.144 140.024 223.328 138.68 220.96C137.336 218.592 135.576 216.8 133.4 215.584C131.288 214.368 129.016 213.76 126.584 213.76C124.216 213.76 121.944 214.368 119.768 215.584C117.656 216.8 115.928 218.592 114.584 220.96C113.24 223.264 112.568 226.048 112.568 229.312C112.568 232.576 113.24 235.424 114.584 237.856C115.928 240.224 117.656 242.016 119.768 243.232C121.944 244.448 124.216 245.056 126.584 245.056C129.016 245.056 131.288 244.448 133.4 243.232C135.576 242.016 137.336 240.224 138.68 237.856C140.024 235.488 140.696 232.672 140.696 229.408ZM217.566 202.816V256H204.03V249.28C202.302 251.584 200.03 253.408 197.214 254.752C194.462 256.032 191.454 256.672 188.19 256.672C184.03 256.672 180.35 255.808 177.15 254.08C173.95 252.288 171.422 249.696 169.566 246.304C167.774 242.848 166.878 238.752 166.878 234.016V202.816H180.318V232.096C180.318 236.32 181.374 239.584 183.486 241.888C185.598 244.128 188.478 245.248 192.126 245.248C195.838 245.248 198.75 244.128 200.862 241.888C202.974 239.584 204.03 236.32 204.03 232.096V202.816H217.566ZM227.371 229.216C227.371 223.84 228.427 219.072 230.539 214.912C232.715 210.752 235.627 207.552 239.275 205.312C242.987 203.072 247.115 201.952 251.659 201.952C255.627 201.952 259.083 202.752 262.027 204.352C265.035 205.952 267.435 207.968 269.227 210.4V202.816H282.763V256H269.227V248.224C267.499 250.72 265.099 252.8 262.027 254.464C259.019 256.064 255.531 256.864 251.563 256.864C247.083 256.864 242.987 255.712 239.275 253.408C235.627 251.104 232.715 247.872 230.539 243.712C228.427 239.488 227.371 234.656 227.371 229.216ZM269.227 229.408C269.227 226.144 268.587 223.36 267.307 221.056C266.027 218.688 264.299 216.896 262.123 215.68C259.947 214.4 257.611 213.76 255.115 213.76C252.619 213.76 250.315 214.368 248.203 215.584C246.091 216.8 244.363 218.592 243.019 220.96C241.739 223.264 241.099 226.016 241.099 229.216C241.099 232.416 241.739 235.232 243.019 237.664C244.363 240.032 246.091 241.856 248.203 243.136C250.379 244.416 252.683 245.056 255.115 245.056C257.611 245.056 259.947 244.448 262.123 243.232C264.299 241.952 266.027 240.16 267.307 237.856C268.587 235.488 269.227 232.672 269.227 229.408ZM309.33 184.96V256H295.89V184.96H309.33ZM329.424 196.48C327.056 196.48 325.072 195.744 323.472 194.272C321.936 192.736 321.168 190.848 321.168 188.608C321.168 186.368 321.936 184.512 323.472 183.04C325.072 181.504 327.056 180.736 329.424 180.736C331.792 180.736 333.744 181.504 335.28 183.04C336.88 184.512 337.68 186.368 337.68 188.608C337.68 190.848 336.88 192.736 335.28 194.272C333.744 195.744 331.792 196.48 329.424 196.48ZM336.048 202.816V256H322.608V202.816H336.048ZM364.975 213.856V239.584C364.975 241.376 365.391 242.688 366.223 243.52C367.119 244.288 368.591 244.672 370.639 244.672H376.879V256H368.431C357.103 256 351.439 250.496 351.439 239.488V213.856H345.103V202.816H351.439V189.664H364.975V202.816H376.879V213.856H364.975ZM437.426 202.816L404.498 281.152H390.194L401.714 254.656L380.402 202.816H395.474L409.202 239.968L423.122 202.816H437.426ZM541.274 202.816L525.722 256H511.226L501.53 218.848L491.834 256H477.242L461.594 202.816H475.226L484.634 243.328L494.81 202.816H509.018L519.002 243.232L528.41 202.816H541.274ZM555.362 196.48C552.994 196.48 551.01 195.744 549.41 194.272C547.874 192.736 547.106 190.848 547.106 188.608C547.106 186.368 547.874 184.512 549.41 183.04C551.01 181.504 552.994 180.736 555.362 180.736C557.73 180.736 559.682 181.504 561.218 183.04C562.818 184.512 563.618 186.368 563.618 188.608C563.618 190.848 562.818 192.736 561.218 194.272C559.682 195.744 557.73 196.48 555.362 196.48ZM561.986 202.816V256H548.546V202.816H561.986ZM590.913 213.856V239.584C590.913 241.376 591.329 242.688 592.161 243.52C593.057 244.288 594.529 244.672 596.577 244.672H602.817V256H594.369C583.041 256 577.377 250.496 577.377 239.488V213.856H571.041V202.816H577.377V189.664H590.913V202.816H602.817V213.856H590.913ZM642.435 202.048C646.467 202.048 650.051 202.944 653.187 204.736C656.323 206.464 658.755 209.056 660.483 212.512C662.275 215.904 663.171 220 663.171 224.8V256H649.731V226.624C649.731 222.4 648.675 219.168 646.563 216.928C644.451 214.624 641.571 213.472 637.923 213.472C634.211 213.472 631.267 214.624 629.091 216.928C626.979 219.168 625.923 222.4 625.923 226.624V256H612.483V184.96H625.923V209.44C627.651 207.136 629.955 205.344 632.835 204.064C635.715 202.72 638.915 202.048 642.435 202.048ZM238.922 332.992V343.84H210.986V361.024H232.394V371.68H210.986V400H197.546V332.992H238.922ZM244.996 373.216C244.996 367.84 246.052 363.072 248.164 358.912C250.34 354.752 253.252 351.552 256.9 349.312C260.612 347.072 264.74 345.952 269.284 345.952C273.252 345.952 276.708 346.752 279.652 348.352C282.66 349.952 285.06 351.968 286.852 354.4V346.816H300.388V400H286.852V392.224C285.124 394.72 282.724 396.8 279.652 398.464C276.644 400.064 273.156 400.864 269.188 400.864C264.708 400.864 260.612 399.712 256.9 397.408C253.252 395.104 250.34 391.872 248.164 387.712C246.052 383.488 244.996 378.656 244.996 373.216ZM286.852 373.408C286.852 370.144 286.212 367.36 284.932 365.056C283.652 362.688 281.924 360.896 279.748 359.68C277.572 358.4 275.236 357.76 272.74 357.76C270.244 357.76 267.94 358.368 265.828 359.584C263.716 360.8 261.988 362.592 260.644 364.96C259.364 367.264 258.724 370.016 258.724 373.216C258.724 376.416 259.364 379.232 260.644 381.664C261.988 384.032 263.716 385.856 265.828 387.136C268.004 388.416 270.308 389.056 272.74 389.056C275.236 389.056 277.572 388.448 279.748 387.232C281.924 385.952 283.652 384.16 284.932 381.856C286.212 379.488 286.852 376.672 286.852 373.408ZM333.867 400.864C329.515 400.864 325.611 400.096 322.155 398.56C318.699 396.96 315.947 394.816 313.899 392.128C311.915 389.44 310.827 386.464 310.635 383.2H324.171C324.427 385.248 325.419 386.944 327.147 388.288C328.939 389.632 331.147 390.304 333.771 390.304C336.331 390.304 338.315 389.792 339.723 388.768C341.195 387.744 341.931 386.432 341.931 384.832C341.931 383.104 341.035 381.824 339.243 380.992C337.515 380.096 334.731 379.136 330.891 378.112C326.923 377.152 323.659 376.16 321.099 375.136C318.603 374.112 316.427 372.544 314.571 370.432C312.779 368.32 311.883 365.472 311.883 361.888C311.883 358.944 312.715 356.256 314.379 353.824C316.107 351.392 318.539 349.472 321.675 348.064C324.875 346.656 328.619 345.952 332.907 345.952C339.243 345.952 344.299 347.552 348.075 350.752C351.851 353.888 353.931 358.144 354.315 363.52H341.451C341.259 361.408 340.363 359.744 338.763 358.528C337.227 357.248 335.147 356.608 332.523 356.608C330.091 356.608 328.203 357.056 326.859 357.952C325.579 358.848 324.939 360.096 324.939 361.696C324.939 363.488 325.835 364.864 327.627 365.824C329.419 366.72 332.203 367.648 335.979 368.608C339.819 369.568 342.987 370.56 345.483 371.584C347.979 372.608 350.123 374.208 351.915 376.384C353.771 378.496 354.731 381.312 354.795 384.832C354.795 387.904 353.931 390.656 352.203 393.088C350.539 395.52 348.107 397.44 344.907 398.848C341.771 400.192 338.091 400.864 333.867 400.864ZM395.779 346.048C399.811 346.048 403.395 346.944 406.531 348.736C409.667 350.464 412.099 353.056 413.827 356.512C415.619 359.904 416.515 364 416.515 368.8V400H403.075V370.624C403.075 366.4 402.019 363.168 399.907 360.928C397.795 358.624 394.915 357.472 391.267 357.472C387.555 357.472 384.611 358.624 382.435 360.928C380.323 363.168 379.267 366.4 379.267 370.624V400H365.827V328.96H379.267V353.44C380.995 351.136 383.299 349.344 386.179 348.064C389.059 346.72 392.259 346.048 395.779 346.048ZM436.112 340.48C433.744 340.48 431.76 339.744 430.16 338.272C428.624 336.736 427.856 334.848 427.856 332.608C427.856 330.368 428.624 328.512 430.16 327.04C431.76 325.504 433.744 324.736 436.112 324.736C438.48 324.736 440.432 325.504 441.968 327.04C443.568 328.512 444.368 330.368 444.368 332.608C444.368 334.848 443.568 336.736 441.968 338.272C440.432 339.744 438.48 340.48 436.112 340.48ZM442.736 346.816V400H429.296V346.816H442.736ZM479.631 400.864C474.511 400.864 469.903 399.744 465.807 397.504C461.711 395.2 458.479 391.968 456.111 387.808C453.807 383.648 452.655 378.848 452.655 373.408C452.655 367.968 453.839 363.168 456.207 359.008C458.639 354.848 461.935 351.648 466.095 349.408C470.255 347.104 474.895 345.952 480.015 345.952C485.135 345.952 489.775 347.104 493.935 349.408C498.095 351.648 501.359 354.848 503.727 359.008C506.159 363.168 507.375 367.968 507.375 373.408C507.375 378.848 506.127 383.648 503.631 387.808C501.199 391.968 497.871 395.2 493.647 397.504C489.487 399.744 484.815 400.864 479.631 400.864ZM479.631 389.152C482.063 389.152 484.335 388.576 486.447 387.424C488.623 386.208 490.351 384.416 491.631 382.048C492.911 379.68 493.551 376.8 493.551 373.408C493.551 368.352 492.207 364.48 489.519 361.792C486.895 359.04 483.663 357.664 479.823 357.664C475.983 357.664 472.751 359.04 470.127 361.792C467.567 364.48 466.287 368.352 466.287 373.408C466.287 378.464 467.535 382.368 470.031 385.12C472.591 387.808 475.791 389.152 479.631 389.152ZM546.705 346.048C553.041 346.048 558.161 348.064 562.065 352.096C565.969 356.064 567.921 361.632 567.921 368.8V400H554.481V370.624C554.481 366.4 553.425 363.168 551.313 360.928C549.201 358.624 546.321 357.472 542.673 357.472C538.961 357.472 536.017 358.624 533.841 360.928C531.729 363.168 530.673 366.4 530.673 370.624V400H517.233V346.816H530.673V353.44C532.465 351.136 534.737 349.344 537.489 348.064C540.305 346.72 543.377 346.048 546.705 346.048Z" fill="white"/>
<path d="M542.711 443.302C538.01 438.591 531.757 436 525.096 436C511.375 436 500.207 447.168 500.207 460.898C500.207 465.285 501.357 469.575 503.533 473.344L500 486.248L513.2 482.784C516.839 484.766 520.935 485.818 525.093 485.818H525.102C538.823 485.818 550 474.65 550 460.92C550 454.265 547.409 448.016 542.708 443.305L542.711 443.302ZM525.102 481.616C521.384 481.616 517.741 480.614 514.563 478.73L513.806 478.277L505.973 480.328L508.065 472.694L507.575 471.909C505.493 468.62 504.406 464.814 504.406 460.898C504.406 449.485 513.689 440.199 525.115 440.199C530.639 440.199 535.843 442.36 539.746 446.263C543.653 450.179 545.801 455.371 545.801 460.904C545.792 472.326 536.508 481.616 525.102 481.616ZM536.449 466.111C535.83 465.797 532.768 464.296 532.2 464.089C531.631 463.881 531.217 463.775 530.796 464.403C530.384 465.021 529.188 466.425 528.824 466.846C528.459 467.257 528.098 467.317 527.479 467.003C526.861 466.689 524.848 466.033 522.473 463.913C520.627 462.264 519.374 460.223 519.009 459.604C518.645 458.985 518.969 458.643 519.286 458.338C519.572 458.062 519.905 457.613 520.219 457.249C520.533 456.884 520.63 456.63 520.837 456.209C521.045 455.798 520.944 455.433 520.787 455.119C520.63 454.805 519.383 451.743 518.874 450.497C518.375 449.278 517.854 449.448 517.471 449.426C517.106 449.407 516.695 449.407 516.284 449.407C515.872 449.407 515.194 449.564 514.625 450.183C514.057 450.801 512.446 452.312 512.446 455.374C512.446 458.436 514.672 461.391 514.986 461.812C515.301 462.223 519.374 468.514 525.614 471.205C527.096 471.843 528.255 472.226 529.156 472.521C530.648 472.992 532.002 472.923 533.073 472.766C534.269 472.59 536.753 471.265 537.275 469.811C537.796 468.357 537.796 467.113 537.639 466.855C537.491 466.579 537.08 466.425 536.452 466.108L536.449 466.111Z" fill="black"/>
<path d="M407 446.802C405.163 447.624 403.182 448.17 401.114 448.414C403.232 447.146 404.854 445.134 405.625 442.74C403.645 443.912 401.445 444.771 399.114 445.23C397.24 443.237 394.575 442 391.626 442C385.962 442 381.375 446.589 381.375 452.251C381.375 453.05 381.463 453.831 381.638 454.584C373.115 454.153 365.557 450.073 360.499 443.865C359.621 445.377 359.112 447.146 359.112 449.02C359.112 452.575 360.918 455.718 363.67 457.552C361.989 457.502 360.409 457.034 359.021 456.275V456.403C359.021 461.373 362.555 465.522 367.251 466.46C366.391 466.694 365.482 466.822 364.545 466.822C363.883 466.822 363.245 466.753 362.611 466.638C363.92 470.708 367.707 473.676 372.19 473.764C368.675 476.516 364.261 478.157 359.449 478.157C358.618 478.157 357.809 478.107 357 478.01C361.549 480.928 366.938 482.618 372.727 482.618C391.588 482.618 401.911 466.988 401.911 453.435C401.911 452.985 401.901 452.547 401.883 452.107C403.885 450.673 405.622 448.864 406.997 446.805L407 446.802Z" fill="black"/>
<path d="M251.312 439H210.688C208.109 439 206 441.109 206 443.688V484.312C206 486.891 208.109 489 210.688 489H231V467.125H224.75V460.875H231V457.75C231 452.584 235.209 448.375 240.375 448.375H246.625V454.625H240.375C238.656 454.625 237.25 456.031 237.25 457.75V460.875H246.625L245.062 467.125H237.25V489H251.312C253.891 489 256 486.891 256 484.312V443.688C256 441.109 253.891 439 251.312 439Z" fill="black"/>
</svg>
